<svg width="31" height="31" viewBox="0 0 31 31" fill="none" xmlns="http://www.w3.org/2000/svg">
<g clip-path="url(#clip0_43_882)">
<path d="M17.937 17.8462C17.049 17.0894 16.0651 16.5091 14.9854 16.1055C13.9056 15.7018 12.7855 15.5 11.625 15.5C10.737 15.5 9.87923 15.616 9.05176 15.8481C8.22428 16.0802 7.45231 16.4032 6.73584 16.8169C6.01937 17.2306 5.36849 17.7352 4.7832 18.3306C4.19792 18.9259 3.69336 19.5819 3.26953 20.2983C2.8457 21.0148 2.51774 21.7868 2.28564 22.6143C2.05355 23.4417 1.9375 24.2995 1.9375 25.1875H0C0 23.9766 0.176595 22.811 0.529785 21.6909C0.882975 20.5708 1.39258 19.5365 2.05859 18.5879C2.72461 17.6393 3.51172 16.7967 4.41992 16.0601C5.32812 15.3234 6.35742 14.7432 7.50781 14.3193C6.36751 13.5726 5.47949 12.6341 4.84375 11.5039C4.20801 10.3737 3.88509 9.1224 3.875 7.75C3.875 6.68034 4.07682 5.67627 4.48047 4.73779C4.88411 3.79932 5.43408 2.97689 6.13037 2.27051C6.82666 1.56413 7.64909 1.00911 8.59766 0.605469C9.54622 0.201823 10.5553 0 11.625 0C12.6947 0 13.6987 0.201823 14.6372 0.605469C15.5757 1.00911 16.3981 1.55908 17.1045 2.25537C17.8109 2.95166 18.3659 3.77409 18.7695 4.72266C19.1732 5.67122 19.375 6.68034 19.375 7.75C19.375 8.41602 19.2943 9.06689 19.1328 9.70264C18.9714 10.3384 18.7292 10.9388 18.4062 11.5039C18.0833 12.069 17.7049 12.5887 17.271 13.063C16.8371 13.5373 16.3275 13.9561 15.7422 14.3193C16.3981 14.5716 17.0238 14.8794 17.6191 15.2427C18.2145 15.606 18.7746 16.0146 19.2993 16.4688L17.937 17.8462ZM5.8125 7.75C5.8125 8.55729 5.96387 9.30908 6.2666 10.0054C6.56934 10.7017 6.98307 11.3172 7.50781 11.8521C8.03255 12.3869 8.64811 12.8057 9.35449 13.1084C10.0609 13.4111 10.8177 13.5625 11.625 13.5625C12.4222 13.5625 13.174 13.4111 13.8804 13.1084C14.5868 12.8057 15.2023 12.3919 15.7271 11.8672C16.2518 11.3424 16.6706 10.7269 16.9834 10.0205C17.2962 9.31413 17.4476 8.55729 17.4375 7.75C17.4375 6.9528 17.2861 6.20101 16.9834 5.49463C16.6807 4.78825 16.2669 4.17269 15.7422 3.64795C15.2174 3.12321 14.5968 2.70443 13.8804 2.3916C13.1639 2.07878 12.4121 1.92741 11.625 1.9375C10.8177 1.9375 10.0659 2.08887 9.36963 2.3916C8.67334 2.69434 8.05778 3.10807 7.52295 3.63281C6.98812 4.15755 6.56934 4.77816 6.2666 5.49463C5.96387 6.2111 5.8125 6.96289 5.8125 7.75ZM26.1562 11.625C26.8223 11.625 27.4479 11.7511 28.0332 12.0034C28.6185 12.2557 29.1281 12.6038 29.562 13.0479C29.9959 13.4919 30.3441 14.0065 30.6064 14.5918C30.8688 15.1771 31 15.8027 31 16.4688C31 17.1348 30.8739 17.7604 30.6216 18.3457C30.3693 18.931 30.0212 19.4456 29.5771 19.8896C29.1331 20.3337 28.6185 20.6818 28.0332 20.9341C27.4479 21.1864 26.8223 21.3125 26.1562 21.3125C25.9242 21.3125 25.6971 21.2974 25.4751 21.2671L16.5898 30.1523C16.3174 30.4248 16.0046 30.6317 15.6514 30.7729C15.2982 30.9142 14.9248 30.9899 14.5312 31C14.1276 31 13.7492 30.9243 13.396 30.7729C13.0428 30.6216 12.735 30.4147 12.4727 30.1523C12.2103 29.89 12.0034 29.5822 11.8521 29.229C11.7007 28.8758 11.625 28.4974 11.625 28.0938C11.625 27.7103 11.6956 27.342 11.8369 26.9888C11.9782 26.6356 12.1901 26.3177 12.4727 26.0352L21.3579 17.1499C21.3276 16.9279 21.3125 16.7008 21.3125 16.4688C21.3125 15.8027 21.4386 15.1771 21.6909 14.5918C21.9432 14.0065 22.2863 13.4969 22.7202 13.063C23.1541 12.6291 23.6688 12.2809 24.2642 12.0186C24.8595 11.7562 25.4902 11.625 26.1562 11.625ZM26.1562 19.375C26.5599 19.375 26.9383 19.2993 27.2915 19.1479C27.6447 18.9966 27.9525 18.7897 28.2148 18.5273C28.4772 18.265 28.6841 17.9572 28.8354 17.604C28.9868 17.2508 29.0625 16.8724 29.0625 16.4688C29.0625 16.055 28.9666 15.6413 28.7749 15.2275L26.5649 17.4375H25.1875V16.0601L27.3975 13.8501C26.9837 13.6584 26.57 13.5625 26.1562 13.5625C25.7526 13.5625 25.3742 13.6382 25.021 13.7896C24.6678 13.9409 24.36 14.1478 24.0977 14.4102C23.8353 14.6725 23.6284 14.9803 23.4771 15.3335C23.3257 15.6867 23.25 16.0651 23.25 16.4688C23.25 16.8825 23.3459 17.2962 23.5376 17.71L13.8501 27.4126C13.6584 27.6043 13.5625 27.8314 13.5625 28.0938C13.5625 28.3561 13.6584 28.5832 13.8501 28.7749C14.0418 28.9666 14.2689 29.0625 14.5312 29.0625C14.7936 29.0625 15.0207 28.9666 15.2124 28.7749L24.915 19.0874C25.3288 19.2791 25.7425 19.375 26.1562 19.375Z" fill="white"/>
</g>
<defs>
<clipPath id="clip0_43_882">
<rect width="31" height="31" fill="white"/>
</clipPath>
</defs>
</svg>
